<?xml version="1.0" encoding="UTF-8" standalone="no"?>
<svg
   xmlns:dc="http://purl.org/dc/elements/1.1/"
   xmlns:cc="http://creativecommons.org/ns#"
   xmlns:rdf="http://www.w3.org/1999/02/22-rdf-syntax-ns#"
   xmlns:svg="http://www.w3.org/2000/svg"
   xmlns="http://www.w3.org/2000/svg"
   xmlns:sodipodi="http://sodipodi.sourceforge.net/DTD/sodipodi-0.dtd"
   xmlns:inkscape="http://www.inkscape.org/namespaces/inkscape"
   id="svg4268"
   version="1.1"
   viewBox="0 0 4.1987968 4.2476212"
   height="16.054001"
   width="15.869469"
   sodipodi:docname="gaphor-agregations-subquantityof-symbolic.svg"
   inkscape:version="1.0.1 (3bc2e813f5, 2020-09-07)">
  <sodipodi:namedview
     pagecolor="#ffffff"
     bordercolor="#666666"
     borderopacity="1"
     objecttolerance="10"
     gridtolerance="10"
     guidetolerance="10"
     inkscape:pageopacity="0"
     inkscape:pageshadow="2"
     inkscape:window-width="1366"
     inkscape:window-height="705"
     id="namedview9"
     showgrid="false"
     inkscape:zoom="16.755948"
     inkscape:cx="10.164422"
     inkscape:cy="9.7886808"
     inkscape:window-x="-8"
     inkscape:window-y="-8"
     inkscape:window-maximized="1"
     inkscape:current-layer="svg4268" />
  <defs
     id="defs4262" />
  <metadata
     id="metadata4265">
    <rdf:RDF>
      <cc:Work
         rdf:about="">
        <dc:format>image/svg+xml</dc:format>
        <dc:type
           rdf:resource="http://purl.org/dc/dcmitype/StillImage" />
        <dc:title />
      </cc:Work>
    </rdf:RDF>
  </metadata>
  <path
     id="path4594-6-2-8"
     d="M 0.26056709,4.150073e-4 A 0.26680061,0.26460979 0 0 1 0.31964232,0.0102148 L 2.1865342,0.53951177 A 0.26712282,0.26492935 0 1 1 2.0408065,1.0492771 L 0.63472952,0.65084 1.0364653,2.045371 A 0.26712302,0.26492956 0 1 1 0.52247871,2.189902 L -0.0111995,0.33834 A 0.26680061,0.26460979 0 0 1 0.26056302,4.4900358e-4 Z"
     style="color:#000000;font-style:normal;font-variant:normal;font-weight:normal;font-stretch:normal;font-size:medium;line-height:normal;font-family:sans-serif;font-variant-ligatures:normal;font-variant-position:normal;font-variant-caps:normal;font-variant-numeric:normal;font-variant-alternates:normal;font-feature-settings:normal;text-indent:0;text-align:start;text-decoration:none;text-decoration-line:none;text-decoration-style:solid;text-decoration-color:#000000;letter-spacing:normal;word-spacing:normal;text-transform:none;writing-mode:lr-tb;direction:ltr;text-orientation:mixed;dominant-baseline:auto;baseline-shift:baseline;text-anchor:start;white-space:normal;shape-padding:0;clip-rule:nonzero;display:inline;overflow:visible;visibility:visible;isolation:auto;mix-blend-mode:normal;color-interpolation:sRGB;color-interpolation-filters:linearRGB;solid-color:#000000;solid-opacity:1;vector-effect:none;fill:#000000;fill-opacity:1;fill-rule:nonzero;stroke:none;stroke-width:0.531353;stroke-linecap:round;stroke-linejoin:round;stroke-miterlimit:4;stroke-dasharray:none;stroke-dashoffset:0;stroke-opacity:1;color-rendering:auto;image-rendering:auto;shape-rendering:auto;text-rendering:auto;enable-background:accumulate" />
  <path
     id="path18"
     d="m 0.48588676,0.27929688 a 0.2667741,0.2645835 0 0 1 0.17920591,0.0761719 l 0.0728637,0.0722656 a 0.2667741,0.2645835 0 0 1 0,0.37500002 0.2667741,0.2645835 0 0 1 -0.37613546,0 L 0.28895721,0.7304688 a 0.2667741,0.2645835 0 0 1 0,-0.375 0.2667741,0.2645835 0 0 1 0.19692955,-0.0761719 z M 1.3129909,1.0996094 a 0.2667741,0.2645835 0 0 1 0.179206,0.076171 L 1.8703017,1.550781 a 0.2667741,0.2645835 0 0 1 0,0.3749998 0.2667741,0.2645835 0 0 1 -0.3781048,0 L 1.1160615,1.5507813 a 0.2667741,0.2645835 0 0 1 0,-0.3750001 0.2667741,0.2645835 0 0 1 0.1969294,-0.076172 z m 1.1323452,1.1230468 a 0.2667741,0.2645835 0 0 1 0.1792058,0.076172 L 3.0026467,2.673828 a 0.2667741,0.2645835 0 0 1 0,0.3730469 0.2667741,0.2645835 0 0 1 -0.3781048,0 L 2.2464371,2.6738281 a 0.2667741,0.2645835 0 0 1 0,-0.375 0.2667741,0.2645835 0 0 1 0.198899,-0.076172 z M 3.5757117,3.34375 a 0.2667741,0.2645835 0 0 1 0.1811752,0.078126 l 0.3761355,0.3749999 a 0.2667741,0.2645835 0 0 1 0,0.373047 0.2667741,0.2645835 0 0 1 -0.3761355,0 L 3.3787822,3.796875 a 0.2667741,0.2645835 0 0 1 0,-0.375 0.2667741,0.2645835 0 0 1 0.1969295,-0.078125 z"
     style="color:#000000;font-style:normal;font-variant:normal;font-weight:normal;font-stretch:normal;font-size:medium;line-height:normal;font-family:sans-serif;font-variant-ligatures:normal;font-variant-position:normal;font-variant-caps:normal;font-variant-numeric:normal;font-variant-alternates:normal;font-variant-east-asian:normal;font-feature-settings:normal;font-variation-settings:normal;text-indent:0;text-align:start;text-decoration:none;text-decoration-line:none;text-decoration-style:solid;text-decoration-color:#000000;letter-spacing:normal;word-spacing:normal;text-transform:none;writing-mode:lr-tb;direction:ltr;text-orientation:mixed;dominant-baseline:auto;baseline-shift:baseline;text-anchor:start;white-space:normal;shape-padding:0;shape-margin:0;inline-size:0;clip-rule:nonzero;display:inline;overflow:visible;visibility:visible;opacity:1;isolation:auto;mix-blend-mode:normal;color-interpolation:sRGB;color-interpolation-filters:linearRGB;solid-color:#000000;solid-opacity:1;vector-effect:none;fill:#000000;fill-opacity:1;fill-rule:nonzero;stroke:none;stroke-width:0.531353;stroke-linecap:round;stroke-linejoin:miter;stroke-miterlimit:4;stroke-dasharray:0.531353, 1.0627;stroke-dashoffset:0;stroke-opacity:1;color-rendering:auto;image-rendering:auto;shape-rendering:auto;text-rendering:auto;enable-background:accumulate;stop-color:#000000;stop-opacity:1" />
  <text
     xml:space="preserve"
     style="font-style:normal;font-weight:normal;font-size:1.65323px;line-height:1.25;font-family:sans-serif;fill:#000000;fill-opacity:1;stroke:none;stroke-width:0.0413306"
     x="-0.0134206"
     y="3.3734977"
     id="text13"
     transform="scale(0.85703727,1.1668104)"><tspan
       sodipodi:role="line"
       id="tspan11"
       x="-0.0134206"
       y="3.3734977"
       style="stroke-width:0.0413306">SQ</tspan></text>
</svg>
