<?xml version="1.0" encoding="UTF-8" standalone="no"?>
<svg
   xmlns:dc="http://purl.org/dc/elements/1.1/"
   xmlns:cc="http://creativecommons.org/ns#"
   xmlns:rdf="http://www.w3.org/1999/02/22-rdf-syntax-ns#"
   xmlns:svg="http://www.w3.org/2000/svg"
   xmlns="http://www.w3.org/2000/svg"
   xmlns:sodipodi="http://sodipodi.sourceforge.net/DTD/sodipodi-0.dtd"
   xmlns:inkscape="http://www.inkscape.org/namespaces/inkscape"
   id="svg4268"
   version="1.1"
   viewBox="0 0 4.1987968 4.2476212"
   height="16.054001"
   width="15.869469"
   sodipodi:docname="gaphor-agregations-subcollectionof-symbolic.svg"
   inkscape:version="1.0.1 (3bc2e813f5, 2020-09-07)">
  <sodipodi:namedview
     pagecolor="#ffffff"
     bordercolor="#666666"
     borderopacity="1"
     objecttolerance="10"
     gridtolerance="10"
     guidetolerance="10"
     inkscape:pageopacity="0"
     inkscape:pageshadow="2"
     inkscape:window-width="1366"
     inkscape:window-height="705"
     id="namedview9"
     showgrid="false"
     inkscape:zoom="23.696489"
     inkscape:cx="11.272836"
     inkscape:cy="9.9308302"
     inkscape:window-x="-8"
     inkscape:window-y="-8"
     inkscape:window-maximized="1"
     inkscape:current-layer="svg4268" />
  <defs
     id="defs4262" />
  <metadata
     id="metadata4265">
    <rdf:RDF>
      <cc:Work
         rdf:about="">
        <dc:format>image/svg+xml</dc:format>
        <dc:type
           rdf:resource="http://purl.org/dc/dcmitype/StillImage" />
        <dc:title />
      </cc:Work>
    </rdf:RDF>
  </metadata>
  <path
     id="path4594-6-2-8"
     d="m 0.27996747,0.01620696 a 0.26593896,0.26559365 0 0 1 0.0588846,0.0098364 L 2.1997147,0.55730839 A 0.26626014,0.2659144 0 1 1 2.0544573,1.0689688 L 0.65292156,0.66905032 1.0533599,2.0687664 A 0.2662603,0.26591456 0 1 1 0.54103331,2.2138347 L 0.00907861,0.3553884 A 0.26593896,0.26559365 0 0 1 0.27996343,0.01624108 Z"
     style="color:#000000;font-style:normal;font-variant:normal;font-weight:normal;font-stretch:normal;font-size:medium;line-height:normal;font-family:sans-serif;font-variant-ligatures:normal;font-variant-position:normal;font-variant-caps:normal;font-variant-numeric:normal;font-variant-alternates:normal;font-feature-settings:normal;text-indent:0;text-align:start;text-decoration:none;text-decoration-line:none;text-decoration-style:solid;text-decoration-color:#000000;letter-spacing:normal;word-spacing:normal;text-transform:none;writing-mode:lr-tb;direction:ltr;text-orientation:mixed;dominant-baseline:auto;baseline-shift:baseline;text-anchor:start;white-space:normal;shape-padding:0;clip-rule:nonzero;display:inline;overflow:visible;visibility:visible;isolation:auto;mix-blend-mode:normal;color-interpolation:sRGB;color-interpolation-filters:linearRGB;solid-color:#000000;solid-opacity:1;vector-effect:none;fill:#000000;fill-opacity:1;fill-rule:nonzero;stroke:none;stroke-width:0.53148;stroke-linecap:round;stroke-linejoin:round;stroke-miterlimit:4;stroke-dasharray:none;stroke-dashoffset:0;stroke-opacity:1;color-rendering:auto;image-rendering:auto;shape-rendering:auto;text-rendering:auto;enable-background:accumulate" />
  <path
     id="path18"
     d="m 0.50455953,0.29612576 a 0.26591254,0.26556726 0 0 1 0.17862716,0.0764551 l 0.0726286,0.0725344 a 0.26591254,0.26556726 0 0 1 0,0.37639432 0.26591254,0.26556726 0 0 1 -0.37492075,0 l -0.0726286,-0.0725344 a 0.26591254,0.26556726 0 0 1 0,-0.37639429 0.26591254,0.26556726 0 0 1 0.19629359,-0.0764551 z M 1.3289926,1.1194883 a 0.26591254,0.26556726 0 0 1 0.1786272,0.076455 l 0.3768836,0.3763944 a 0.26591254,0.26556726 0 0 1 0,0.3763943 0.26591254,0.26556726 0 0 1 -0.3768836,0 L 1.132699,1.5723377 a 0.26591254,0.26556726 0 0 1 0,-0.3763944 0.26591254,0.26556726 0 0 1 0.1962936,-0.076455 z m 1.128688,1.1272224 a 0.26591254,0.26556726 0 0 1 0.1786271,0.076455 l 0.3768837,0.3763944 a 0.26591254,0.26556726 0 0 1 0,0.3744339 0.26591254,0.26556726 0 0 1 -0.3768837,0 L 2.2594241,2.6995602 a 0.26591254,0.26556726 0 0 1 0,-0.3763944 0.26591254,0.26556726 0 0 1 0.1982565,-0.076455 z M 3.5844058,3.371973 a 0.26591254,0.26556726 0 0 1 0.1805901,0.078415 l 0.3749208,0.3763942 a 0.26591254,0.26556726 0 0 1 0,0.3744338 0.26591254,0.26556726 0 0 1 -0.3749208,0 L 3.3881122,3.8267828 a 0.26591254,0.26556726 0 0 1 0,-0.3763943 0.26591254,0.26556726 0 0 1 0.1962936,-0.078415 z"
     style="color:#000000;font-style:normal;font-variant:normal;font-weight:normal;font-stretch:normal;font-size:medium;line-height:normal;font-family:sans-serif;font-variant-ligatures:normal;font-variant-position:normal;font-variant-caps:normal;font-variant-numeric:normal;font-variant-alternates:normal;font-variant-east-asian:normal;font-feature-settings:normal;font-variation-settings:normal;text-indent:0;text-align:start;text-decoration:none;text-decoration-line:none;text-decoration-style:solid;text-decoration-color:#000000;letter-spacing:normal;word-spacing:normal;text-transform:none;writing-mode:lr-tb;direction:ltr;text-orientation:mixed;dominant-baseline:auto;baseline-shift:baseline;text-anchor:start;white-space:normal;shape-padding:0;shape-margin:0;inline-size:0;clip-rule:nonzero;display:inline;overflow:visible;visibility:visible;opacity:1;isolation:auto;mix-blend-mode:normal;color-interpolation:sRGB;color-interpolation-filters:linearRGB;solid-color:#000000;solid-opacity:1;vector-effect:none;fill:#000000;fill-opacity:1;fill-rule:nonzero;stroke:none;stroke-width:0.53148;stroke-linecap:round;stroke-linejoin:miter;stroke-miterlimit:4;stroke-dasharray:0.53148, 1.06296;stroke-dashoffset:0;stroke-opacity:1;color-rendering:auto;image-rendering:auto;shape-rendering:auto;text-rendering:auto;enable-background:accumulate;stop-color:#000000;stop-opacity:1" />
  <text
     xml:space="preserve"
     style="font-style:normal;font-weight:normal;font-size:1.72906px;line-height:1.25;font-family:sans-serif;fill:#000000;fill-opacity:1;stroke:none;stroke-width:0.0432266"
     x="-0.0602016"
     y="3.7220438"
     id="text13"
     transform="scale(0.88740414,1.1268823)"><tspan
       sodipodi:role="line"
       id="tspan11"
       x="-0.0602016"
       y="3.7220438"
       style="stroke-width:0.0432266">SC</tspan></text>
</svg>
