<?xml version="1.0" encoding="UTF-8" standalone="no"?>
<svg
   xmlns:dc="http://purl.org/dc/elements/1.1/"
   xmlns:cc="http://creativecommons.org/ns#"
   xmlns:rdf="http://www.w3.org/1999/02/22-rdf-syntax-ns#"
   xmlns:svg="http://www.w3.org/2000/svg"
   xmlns="http://www.w3.org/2000/svg"
   xmlns:sodipodi="http://sodipodi.sourceforge.net/DTD/sodipodi-0.dtd"
   xmlns:inkscape="http://www.inkscape.org/namespaces/inkscape"
   id="svg4268"
   version="1.1"
   viewBox="0 0 4.1987968 4.2476212"
   height="16.054001"
   width="15.869469"
   sodipodi:docname="gaphor-agregations-memberofblack-symbolic.svg"
   inkscape:version="1.0.1 (3bc2e813f5, 2020-09-07)">
  <sodipodi:namedview
     pagecolor="#ffffff"
     bordercolor="#666666"
     borderopacity="1"
     objecttolerance="10"
     gridtolerance="10"
     guidetolerance="10"
     inkscape:pageopacity="0"
     inkscape:pageshadow="2"
     inkscape:window-width="1366"
     inkscape:window-height="705"
     id="namedview9"
     showgrid="false"
     inkscape:zoom="16.755948"
     inkscape:cx="11.724925"
     inkscape:cy="4.9473626"
     inkscape:window-x="-8"
     inkscape:window-y="-8"
     inkscape:window-maximized="1"
     inkscape:current-layer="svg4268"
     inkscape:document-rotation="0"
     inkscape:snap-intersection-paths="true"
     inkscape:snap-smooth-nodes="true" />
  <defs
     id="defs4262" />
  <metadata
     id="metadata4265">
    <rdf:RDF>
      <cc:Work
         rdf:about="">
        <dc:format>image/svg+xml</dc:format>
        <dc:type
           rdf:resource="http://purl.org/dc/dcmitype/StillImage" />
        <dc:title />
      </cc:Work>
    </rdf:RDF>
  </metadata>
  <path
     id="path4594-6-2-8"
     d="m 0.27786074,0.03199274 a 0.26394816,0.26264208 0 0 1 0.058443,0.0097271 L 2.1832367,0.56708087 A 0.26426693,0.26295927 0 1 1 2.039067,1.0730551 L 0.6480229,0.677581 1.0454637,2.0617419 A 0.26426709,0.26295944 0 1 1 0.53697231,2.205198 L 0.00899972,0.36740484 A 0.26394816,0.26264208 0 0 1 0.2778568,0.03202649 Z"
     style="color:#000000;font-style:normal;font-variant:normal;font-weight:normal;font-stretch:normal;font-size:medium;line-height:normal;font-family:sans-serif;font-variant-ligatures:normal;font-variant-position:normal;font-variant-caps:normal;font-variant-numeric:normal;font-variant-alternates:normal;font-feature-settings:normal;text-indent:0;text-align:start;text-decoration:none;text-decoration-line:none;text-decoration-style:solid;text-decoration-color:#000000;letter-spacing:normal;word-spacing:normal;text-transform:none;writing-mode:lr-tb;direction:ltr;text-orientation:mixed;dominant-baseline:auto;baseline-shift:baseline;text-anchor:start;white-space:normal;shape-padding:0;clip-rule:nonzero;display:inline;overflow:visible;visibility:visible;isolation:auto;mix-blend-mode:normal;color-interpolation:sRGB;color-interpolation-filters:linearRGB;solid-color:#000000;solid-opacity:1;vector-effect:none;fill:#000000;fill-opacity:1;fill-rule:nonzero;stroke:none;stroke-width:0.526536;stroke-linecap:round;stroke-linejoin:round;stroke-miterlimit:4;stroke-dasharray:none;stroke-dashoffset:0;stroke-opacity:1;color-rendering:auto;image-rendering:auto;shape-rendering:auto;text-rendering:auto;enable-background:accumulate" />
  <path
     id="path18"
     d="m 1.8387419,1.8404065 a 0.16809261,0.16047815 0 0 1 0.1129165,0.046201 l 0.045911,0.043831 a 0.16809261,0.16047815 0 0 1 0,0.2274492 0.16809261,0.16047815 0 0 1 -0.2370005,0 l -0.045911,-0.043831 a 0.16809261,0.16047815 0 0 1 0,-0.2274492 0.16809261,0.16047815 0 0 1 0.124084,-0.046201 z m 0.521153,0.4975451 a 0.16809261,0.16047815 0 0 1 0.1129164,0.0462 l 0.2382414,0.2274492 a 0.16809261,0.16047815 0 0 1 0,0.2274493 0.16809261,0.16047815 0 0 1 -0.2382414,0 L 2.2358109,2.6116014 a 0.16809261,0.16047815 0 0 1 0,-0.2274492 0.16809261,0.16047815 0 0 1 0.124084,-0.046201 z m 0.7134832,0.681163 a 0.16809261,0.16047815 0 0 1 0.1129164,0.046201 l 0.2382413,0.2274492 a 0.16809261,0.16047815 0 0 1 0,0.2262646 0.16809261,0.16047815 0 0 1 -0.2382413,0 L 2.9480532,3.2927644 a 0.16809261,0.16047815 0 0 1 0,-0.2274492 0.16809261,0.16047815 0 0 1 0.1253249,-0.046201 z m 0.7122423,0.6799783 a 0.16809261,0.16047815 0 0 1 0.1141573,0.047385 l 0.2370005,0.2274493 a 0.16809261,0.16047815 0 0 1 0,0.2262645 0.16809261,0.16047815 0 0 1 -0.2370005,0 L 3.6615363,3.9739274 a 0.16809261,0.16047815 0 0 1 0,-0.2274493 0.16809261,0.16047815 0 0 1 0.1240841,-0.047385 z"
     style="color:#000000;font-style:normal;font-variant:normal;font-weight:normal;font-stretch:normal;font-size:medium;line-height:normal;font-family:sans-serif;font-variant-ligatures:normal;font-variant-position:normal;font-variant-caps:normal;font-variant-numeric:normal;font-variant-alternates:normal;font-variant-east-asian:normal;font-feature-settings:normal;font-variation-settings:normal;text-indent:0;text-align:start;text-decoration:none;text-decoration-line:none;text-decoration-style:solid;text-decoration-color:#000000;letter-spacing:normal;word-spacing:normal;text-transform:none;writing-mode:lr-tb;direction:ltr;text-orientation:mixed;dominant-baseline:auto;baseline-shift:baseline;text-anchor:start;white-space:normal;shape-padding:0;shape-margin:0;inline-size:0;clip-rule:nonzero;display:inline;overflow:visible;visibility:visible;opacity:1;isolation:auto;mix-blend-mode:normal;color-interpolation:sRGB;color-interpolation-filters:linearRGB;solid-color:#000000;solid-opacity:1;vector-effect:none;fill:#000000;fill-opacity:1;fill-rule:nonzero;stroke:none;stroke-width:0.328482;stroke-linecap:round;stroke-linejoin:miter;stroke-miterlimit:4;stroke-dasharray:0.328482, 0.656963;stroke-dashoffset:0;stroke-opacity:1;color-rendering:auto;image-rendering:auto;shape-rendering:auto;text-rendering:auto;enable-background:accumulate;stop-color:#000000;stop-opacity:1" />
  <text
     xml:space="preserve"
     style="font-style:normal;font-weight:normal;font-size:2.10862px;line-height:1.25;font-family:sans-serif;fill:#000000;fill-opacity:1;stroke:none;stroke-width:0.0527158"
     x="-0.15409237"
     y="4.4350142"
     id="text13"
     transform="scale(1.0519385,0.95062592)"><tspan
       sodipodi:role="line"
       id="tspan11"
       x="-0.15409237"
       y="4.4350142"
       style="stroke-width:0.0527158">M</tspan></text>
  <path
     id="path18-2"
     style="color:#000000;font-style:normal;font-variant:normal;font-weight:normal;font-stretch:normal;font-size:medium;line-height:normal;font-family:sans-serif;font-variant-ligatures:normal;font-variant-position:normal;font-variant-caps:normal;font-variant-numeric:normal;font-variant-alternates:normal;font-variant-east-asian:normal;font-feature-settings:normal;font-variation-settings:normal;text-indent:0;text-align:start;text-decoration:none;text-decoration-line:none;text-decoration-style:solid;text-decoration-color:#000000;letter-spacing:normal;word-spacing:normal;text-transform:none;writing-mode:lr-tb;direction:ltr;text-orientation:mixed;dominant-baseline:auto;baseline-shift:baseline;text-anchor:start;white-space:normal;shape-padding:0;shape-margin:0;inline-size:0;clip-rule:nonzero;display:inline;overflow:visible;visibility:visible;opacity:1;isolation:auto;mix-blend-mode:normal;color-interpolation:sRGB;color-interpolation-filters:linearRGB;solid-color:#000000;solid-opacity:1;vector-effect:none;fill:#000000;fill-opacity:1;fill-rule:nonzero;stroke:none;stroke-width:0.894527;stroke-linecap:round;stroke-linejoin:miter;stroke-miterlimit:4;stroke-dasharray:0.894527, 1.78904;stroke-dashoffset:0;stroke-opacity:1;color-rendering:auto;image-rendering:auto;shape-rendering:auto;text-rendering:auto;enable-background:accumulate;stop-color:#000000;stop-opacity:1"
     d="M 0.98189442,2.1335673 A 0.41943636,0.47693209 86.495796 0 1 0.65926304,2.0232586 0.41943636,0.47693209 86.495796 0 1 0.63641433,1.4293774 L 1.2889257,0.80873747 a 0.41943636,0.47693209 86.495796 0 1 0.6723269,-0.0293305 0.41943636,0.47693209 86.495796 0 1 0.022745,0.59118163 l -0.649478,0.6232117 a 0.41943636,0.47693209 86.495796 0 1 -0.3189352,0.1382972 0.41943636,0.47693209 86.495796 0 1 -0.0336878,0.00147 z" />
  <path
     id="path18-3"
     style="color:#000000;font-style:normal;font-variant:normal;font-weight:normal;font-stretch:normal;font-size:medium;line-height:normal;font-family:sans-serif;font-variant-ligatures:normal;font-variant-position:normal;font-variant-caps:normal;font-variant-numeric:normal;font-variant-alternates:normal;font-variant-east-asian:normal;font-feature-settings:normal;font-variation-settings:normal;text-indent:0;text-align:start;text-decoration:none;text-decoration-line:none;text-decoration-style:solid;text-decoration-color:#000000;letter-spacing:normal;word-spacing:normal;text-transform:none;writing-mode:lr-tb;direction:ltr;text-orientation:mixed;dominant-baseline:auto;baseline-shift:baseline;text-anchor:start;white-space:normal;shape-padding:0;shape-margin:0;inline-size:0;clip-rule:nonzero;display:inline;overflow:visible;visibility:visible;opacity:1;isolation:auto;mix-blend-mode:normal;color-interpolation:sRGB;color-interpolation-filters:linearRGB;solid-color:#000000;solid-opacity:1;vector-effect:none;fill:#000000;fill-opacity:1;fill-rule:nonzero;stroke:none;stroke-width:0.906303;stroke-linecap:round;stroke-linejoin:miter;stroke-miterlimit:4;stroke-dasharray:0.906303, 1.8126;stroke-dashoffset:0;stroke-opacity:1;color-rendering:auto;image-rendering:auto;shape-rendering:auto;text-rendering:auto;enable-background:accumulate;stop-color:#000000;stop-opacity:1"
     d="m 0.6451812,0.4111609 a 0.54993513,0.37340088 0 0 0 -0.36856298,0.10821673 0.54993513,0.37340088 0 0 0 0,0.52905977 l 0.15046745,0.1022045 a 0.54993513,0.37340088 0 0 0 0.77601133,0 0.54993513,0.37340088 0 0 0 0,-0.53026212 L 1.052628,0.51937744 a 0.54993513,0.37340088 0 0 0 -0.37025342,-0.10821673 0.54993513,0.37340088 0 0 0 -0.0371952,-1e-7 z m 2.2637894,1.4308659 c 0.00302,0.00683 0.00985,0.012593 0.013517,0.019243 0.00452,-9.176e-4 0.00905,-0.00149 0.013545,-0.00241 -0.00962,-0.00621 -0.030624,-0.02496 -0.027056,-0.016823 z" />
</svg>
