<?xml version="1.0" encoding="UTF-8" standalone="no"?>
<svg
   xmlns:dc="http://purl.org/dc/elements/1.1/"
   xmlns:cc="http://creativecommons.org/ns#"
   xmlns:rdf="http://www.w3.org/1999/02/22-rdf-syntax-ns#"
   xmlns:svg="http://www.w3.org/2000/svg"
   xmlns="http://www.w3.org/2000/svg"
   xmlns:sodipodi="http://sodipodi.sourceforge.net/DTD/sodipodi-0.dtd"
   xmlns:inkscape="http://www.inkscape.org/namespaces/inkscape"
   id="svg4268"
   version="1.1"
   viewBox="0 0 4.1987968 4.2476212"
   height="16.054001"
   width="15.869469"
   sodipodi:docname="gaphor-agregations-partwholeblack-symbolic.svg"
   inkscape:version="1.0.1 (3bc2e813f5, 2020-09-07)">
  <sodipodi:namedview
     pagecolor="#ffffff"
     bordercolor="#666666"
     borderopacity="1"
     objecttolerance="10"
     gridtolerance="10"
     guidetolerance="10"
     inkscape:pageopacity="0"
     inkscape:pageshadow="2"
     inkscape:window-width="1366"
     inkscape:window-height="705"
     id="namedview9"
     showgrid="false"
     inkscape:zoom="16.755948"
     inkscape:cx="18.952947"
     inkscape:cy="9.7174601"
     inkscape:window-x="-8"
     inkscape:window-y="-8"
     inkscape:window-maximized="1"
     inkscape:current-layer="svg4268"
     inkscape:document-rotation="0" />
  <defs
     id="defs4262" />
  <metadata
     id="metadata4265">
    <rdf:RDF>
      <cc:Work
         rdf:about="">
        <dc:format>image/svg+xml</dc:format>
        <dc:type
           rdf:resource="http://purl.org/dc/dcmitype/StillImage" />
        <dc:title />
      </cc:Work>
    </rdf:RDF>
  </metadata>
  <path
     id="path4594-6-2-8"
     d="m 0.27891411,0.01620388 a 0.26494356,0.26362592 0 0 1 0.0586638,0.0097636 L 2.1914755,0.55329643 A 0.26526353,0.26394431 0 1 1 2.0467623,1.061166 L 0.65047225,0.6642105 1.0494118,2.0535563 A 0.26526369,0.26394446 0 1 1 0.53900283,2.19755 L 0.0090392,0.35287241 A 0.26494356,0.26362592 0 0 1 0.27891016,0.01623775 Z"
     style="color:#000000;font-style:normal;font-variant:normal;font-weight:normal;font-stretch:normal;font-size:medium;line-height:normal;font-family:sans-serif;font-variant-ligatures:normal;font-variant-position:normal;font-variant-caps:normal;font-variant-numeric:normal;font-variant-alternates:normal;font-feature-settings:normal;text-indent:0;text-align:start;text-decoration:none;text-decoration-line:none;text-decoration-style:solid;text-decoration-color:#000000;letter-spacing:normal;word-spacing:normal;text-transform:none;writing-mode:lr-tb;direction:ltr;text-orientation:mixed;dominant-baseline:auto;baseline-shift:baseline;text-anchor:start;white-space:normal;shape-padding:0;clip-rule:nonzero;display:inline;overflow:visible;visibility:visible;isolation:auto;mix-blend-mode:normal;color-interpolation:sRGB;color-interpolation-filters:linearRGB;solid-color:#000000;solid-opacity:1;vector-effect:none;fill:#000000;fill-opacity:1;fill-rule:nonzero;stroke:none;stroke-width:0.528515;stroke-linecap:round;stroke-linejoin:round;stroke-miterlimit:4;stroke-dasharray:none;stroke-dashoffset:0;stroke-opacity:1;color-rendering:auto;image-rendering:auto;shape-rendering:auto;text-rendering:auto;enable-background:accumulate" />
  <path
     id="path18"
     d="m 1.7524181,1.6203878 a 0.17540633,0.17515049 0 0 1 0.1178295,0.050425 l 0.047909,0.047839 a 0.17540633,0.17515049 0 0 1 0,0.2482446 0.17540633,0.17515049 0 0 1 -0.2473124,0 l -0.047909,-0.047839 a 0.17540633,0.17515049 0 0 1 0,-0.2482446 0.17540633,0.17515049 0 0 1 0.1294829,-0.050425 z m 0.5438283,0.5430351 a 0.17540633,0.17515049 0 0 1 0.1178296,0.050424 l 0.2486072,0.2482447 a 0.17540633,0.17515049 0 0 1 0,0.2482446 0.17540633,0.17515049 0 0 1 -0.2486072,0 L 2.1667635,2.4620922 a 0.17540633,0.17515049 0 0 1 0,-0.2482447 0.17540633,0.17515049 0 0 1 0.1294829,-0.050425 z m 0.7445269,0.7434409 a 0.17540633,0.17515049 0 0 1 0.1178295,0.050424 L 3.40721,3.2055328 a 0.17540633,0.17515049 0 0 1 0,0.2469516 0.17540633,0.17515049 0 0 1 -0.2486072,0 L 2.9099955,3.2055332 a 0.17540633,0.17515049 0 0 1 0,-0.2482447 0.17540633,0.17515049 0 0 1 0.1307778,-0.050425 z m 0.7432321,0.7421481 a 0.17540633,0.17515049 0 0 1 0.1191243,0.051718 l 0.2473125,0.2482445 a 0.17540633,0.17515049 0 0 1 0,0.2469518 0.17540633,0.17515049 0 0 1 -0.2473125,0 L 3.6545225,3.9489744 a 0.17540633,0.17515049 0 0 1 0,-0.2482446 0.17540633,0.17515049 0 0 1 0.1294829,-0.051718 z"
     style="color:#000000;font-style:normal;font-variant:normal;font-weight:normal;font-stretch:normal;font-size:medium;line-height:normal;font-family:sans-serif;font-variant-ligatures:normal;font-variant-position:normal;font-variant-caps:normal;font-variant-numeric:normal;font-variant-alternates:normal;font-variant-east-asian:normal;font-feature-settings:normal;font-variation-settings:normal;text-indent:0;text-align:start;text-decoration:none;text-decoration-line:none;text-decoration-style:solid;text-decoration-color:#000000;letter-spacing:normal;word-spacing:normal;text-transform:none;writing-mode:lr-tb;direction:ltr;text-orientation:mixed;dominant-baseline:auto;baseline-shift:baseline;text-anchor:start;white-space:normal;shape-padding:0;shape-margin:0;inline-size:0;clip-rule:nonzero;display:inline;overflow:visible;visibility:visible;opacity:1;isolation:auto;mix-blend-mode:normal;color-interpolation:sRGB;color-interpolation-filters:linearRGB;solid-color:#000000;solid-opacity:1;vector-effect:none;fill:#000000;fill-opacity:1;fill-rule:nonzero;stroke:none;stroke-width:0.350556;stroke-linecap:round;stroke-linejoin:miter;stroke-miterlimit:4;stroke-dasharray:0.350556, 0.701113;stroke-dashoffset:0;stroke-opacity:1;color-rendering:auto;image-rendering:auto;shape-rendering:auto;text-rendering:auto;enable-background:accumulate;stop-color:#000000;stop-opacity:1" />
  <text
     xml:space="preserve"
     style="font-style:normal;font-weight:normal;font-size:1.58555px;line-height:1.25;font-family:sans-serif;fill:#000000;fill-opacity:1;stroke:none;stroke-width:0.0396389"
     x="-0.054145586"
     y="3.5115759"
     id="text13"
     transform="scale(0.82682183,1.2094504)"><tspan
       sodipodi:role="line"
       id="tspan11"
       x="-0.054145586"
       y="3.5115759"
       style="stroke-width:0.0396389">PW</tspan></text>
  <path
     style="fill:none;fill-rule:evenodd;stroke:#000000;stroke-width:0.264583px;stroke-linecap:butt;stroke-linejoin:miter;stroke-opacity:1"
     d="M 0.85268228,2.0843345 2.2422386,0.86847269"
     id="path10"
     inkscape:connector-type="polyline"
     inkscape:connector-curvature="0" />
  <path
     d=""
     id="path68"
     style="stroke-width:0.0596803"
     transform="scale(0.26458333)" />
  <path
     d="M 2.7960007,8.9682318 C 2.5513106,8.9164001 2.3306954,8.7721116 2.2066326,8.5827675 2.1531874,8.5012001 1.6400376,6.8029237 1.0662999,4.80882 -0.0575727,0.90264771 -0.06149094,0.88280819 0.21440335,0.49535042 0.35516673,0.29766648 0.74460821,0.08270375 0.9661521,0.08040238 1.1207681,0.07879625 8.1656212,2.0741155 8.4283631,2.1939304 8.6728662,2.3054278 8.9232173,2.6375877 8.9672464,2.9089081 9.0210118,3.240223 8.8503142,3.6106777 8.5206265,3.8781835 8.3664651,4.0032686 7.2840179,4.9426395 6.1151887,5.9656744 L 3.9900441,7.8257378 3.9583403,8.1070135 C 3.8935092,8.6821925 3.3492809,9.0854302 2.7960007,8.9682318 Z M 5.4908721,5.2777215 C 6.4076568,4.4739281 7.1238926,3.804992 7.0825067,3.7911968 6.8129863,3.7013567 2.4488108,2.4787837 2.4376111,2.4899834 c -0.012952,0.012952 1.1410982,4.0894806 1.2066028,4.2621643 0.017181,0.045293 0.061405,0.059097 0.1047552,0.0327 0.041262,-0.025126 0.8251184,-0.703333 1.741903,-1.5071262 z"
     id="path70"
     style="stroke-width:0.0596803"
     transform="scale(0.26458333)" />
  <path
     d="M 3.1131717,4.6718047 C 2.7916629,3.5530501 2.5409271,2.6253886 2.555981,2.6103347 2.590418,2.5758977 6.849488,3.7762108 6.91831,3.8397487 6.9600984,3.8783287 3.8840093,6.6387604 3.742315,6.6898344 3.7177949,6.6986727 3.4346805,5.7905594 3.1131717,4.6718047 Z"
     id="path72"
     style="stroke-width:0.0596803"
     transform="scale(0.26458333)" />
  <path
     d="M 3.6840215,6.4538608 C 3.2795429,5.1688285 2.5848257,2.7008506 2.6181865,2.6674898 2.6409622,2.6447141 5.3540648,3.3922747 6.3604037,3.6986096 L 6.8676863,3.8530292 6.3902439,4.3009977 C 5.9933983,4.6733449 4.1864473,6.283585 3.8448256,6.5693131 3.7574324,6.6424076 3.7392625,6.6293621 3.6840215,6.4538608 Z"
     id="path74"
     style="stroke-width:0.0596803"
     transform="scale(0.26458333)" />
  <path
     d=""
     id="path76"
     style="stroke-width:0.0596803"
     transform="scale(0.26458333)" />
  <path
     id="path78"
     d="m 0.52728725,0.66641572 c 9.4191e-4,0.10148064 0.008633,0.20242662 0.0195252,0.3032834 0.0141938,0.14114998 0.0440944,0.27967258 0.0752918,0.41779468 0.00351,0.017251 0.007251,0.034456 0.010531,0.051752 0.00988,0.052105 0.005029,0.038519 0.0181282,0.089814 0.009734,0.03812 0.0231013,0.074935 0.0359514,0.1120662 0.0187058,0.055547 0.0500773,0.1036994 0.0909799,0.1451627 0.007451,0.0075 0.0842892,0.064625 0.08841,0.062159 C 0.93494716,1.8072585 0.99982148,1.7597723 1.0666799,1.715434 1.0405626,1.6240132 1.0194168,1.5313851 0.99674435,1.4390705 0.9684038,1.3182377 0.94685193,1.1959884 0.92132495,1.0745704 0.90346995,0.99131868 0.88398796,0.90896468 0.85993218,0.82729339 0.84485669,0.76508495 0.8233293,0.70476821 0.80894512,0.64239499 c -8.7048e-4,-0.0107699 -0.004848,-0.0222925 0.003802,-0.0315015 0.003079,-0.003278 0.0158229,-0.008535 0.0119901,-0.006183 -0.0612034,0.0375499 -0.12369075,0.07303 -0.1841311,0.11179611 -0.004641,0.002976 0.01055,-0.00362 0.0160504,-0.00399 0.00671,-4.5243e-4 0.0134099,0.00104 0.0201147,0.001558 0.0616699,0.0130014 0.11942365,0.0411666 0.17637275,0.0675038 0.11475225,0.0451574 0.22837763,0.0939981 0.34471343,0.13499565 0.080485,0.0289808 0.1636771,0.0446806 0.2487668,0.0496241 0.076033,-0.003455 0.1460071,0.0106831 0.2188131,0.0301181 0.053276,0.0142217 0.1078754,0.0237037 0.1588805,0.0452119 0.028073,0.016797 0.043103,0.046118 0.041771,0.078527 0.020141,0.00158 -0.045831,0.03068 -0.033072,0.02287 0.058523,-0.035825 0.1194328,-0.067705 0.1774116,-0.1044031 0.00925,-0.00585 -0.020337,0.00815 -0.030738,0.011564 -0.01099,0.00361 -0.022253,0.00632 -0.03338,0.00948 -0.063852,0.012733 -0.1260687,0.030718 -0.1862638,0.055454 -0.068879,0.02526 -0.1380088,0.049787 -0.2068131,0.075326 -0.1349182,0.045862 -0.2571146,0.1218582 -0.3747594,0.2014735 -0.051583,0.040258 -0.1124828,0.06819 -0.1561016,0.1176747 -0.0376035,0.039534 -0.0615495,0.090004 -0.085509,0.1386277 -0.0204408,0.043513 -0.0374078,0.088445 -0.0561971,0.1326374 -0.0113932,0.051489 0.0379847,0.036728 0.0643619,0.021974 0.17357658,-0.097089 0.17016948,-0.0956 0.27481228,-0.1606828 -0.048216,0.028093 -0.096868,0.055452 -0.1446489,0.084279 -0.016071,0.0097 0.033033,-0.017833 0.049485,-0.026866 0.06211,-0.034102 0.1242624,-0.067651 0.1873075,-0.1000057 0.153761,-0.084041 0.3070566,-0.1701399 0.4431688,-0.2809746 0.03045,-0.031904 0.067144,-0.058186 0.09479,-0.092808 0.011101,-0.013902 0.027903,-0.04103 0.037204,-0.055538 0.039905,-0.061031 0.06724,-0.1287204 0.09879,-0.1941594 0.043832,-0.0989712 0.069767,-0.0758217 -0.2020127,0.0669692 -0.00657,0.00345 -0.00715,0.013039 -0.011227,0.019244 -0.019233,0.029245 -0.025318,0.034819 -0.048941,0.063349 -0.040409,0.047285 -0.077994,0.097615 -0.1231703,0.1406252 -0.058593,0.055783 -0.165401,0.1064461 0.1579657,-0.089113 -5.874e-4,-2.527e-4 -0.00187,-1.266e-4 -0.00176,-7.593e-4 0.00374,-0.022653 0.00967,-0.044931 0.016126,-0.066966 0.011036,-0.037682 0.025601,-0.073042 0.046037,-0.1064356 0.00221,-2.382e-4 0.00866,-0.00167 0.00665,-7.143e-4 -0.074811,0.035505 -0.1521808,0.06578 -0.2253703,0.1045179 -0.00963,0.0051 -0.013438,0.017148 -0.020371,0.025549 C 1.5699734,1.144233 1.5601104,1.156262 1.5497594,1.16786 1.5279234,1.192327 1.5009104,1.21942 1.4779804,1.242868 1.3981254,1.321057 1.2927016,1.3647113 1.6519398,1.19748 1.6629448,1.19236 1.6691858,1.180359 1.6784378,1.1725 1.6849678,1.16695 1.7593748,1.10898 1.7640648,1.105319 1.7339188,1.076768 1.8333168,1.079024 1.8246848,1.053994 1.8203348,1.041383 1.8026208,1.028072 1.7903818,1.033379 1.6658613,1.087375 1.5518666,1.173095 1.4370253,1.2466728 c 0.051501,-0.032482 0.1042199,-0.063108 0.1545025,-0.097445 0.00194,-0.00133 -0.00644,-0.00195 -0.00569,-0.00418 0.00274,-0.00814 0.0096,-0.014242 0.014314,-0.021415 0.0092,-0.013981 0.017568,-0.028529 0.027434,-0.042047 0.030064,-0.041192 0.042849,-0.052562 0.077524,-0.0895278 0.075215,-0.0636059 0.094506,-0.0764045 -0.1270494,0.0663054 -0.00514,0.00331 0.023787,-0.011397 0.029672,9.049e-4 0.00278,0.00582 -0.00489,0.045415 -0.00532,0.048157 -6.377e-4,0.0089 -0.0053,0.044102 9.922e-4,0.054985 0.041312,0.071469 0.2381493,-0.1045421 0.241631,-0.1066242 0.0069,-0.00413 0.031135,-0.039389 0.035595,-0.045626 0.00273,-0.00559 0.00839,-0.0105551 0.00818,-0.0167712 C 1.8882231,0.9758483 1.8675196,0.9658599 1.8520356,0.9736399 1.7329546,1.0334756 1.6480394,1.0869816 1.5485008,1.1590298 1.4765212,1.2070143 1.4125781,1.2651763 1.344216,1.3178349 1.2893153,1.3612318 1.2365929,1.4071981 1.1824129,1.4514672 1.1240619,1.495197 1.0729517,1.5481105 1.019451,1.5976177 0.9515455,1.6580035 0.87628046,1.7096816 0.81005277,1.7718772 c -0.0160139,0.018522 -0.0822754,0.086793 -0.0559441,0.1147511 0.0067,0.00711 0.0171844,0.00931 0.0257768,0.013964 0.0114961,-0.00128 0.0231585,-0.0015 0.0344884,-0.00383 0.0827205,-0.017001 0.16315484,-0.053852 0.23849123,-0.090692 0.1060893,-0.054663 0.2090121,-0.1158181 0.3100361,-0.1791467 0.030427,-0.019073 0.055109,-0.053032 0.078106,-0.079985 0.031474,-0.035471 0.050331,-0.079177 0.075381,-0.1188372 0.013408,-0.021229 0.025312,-0.035953 0.040451,-0.055799 0.017739,-0.023827 0.035171,-0.047849 0.052763,-0.071774 0.00398,-0.00542 0.014293,-0.00948 0.012381,-0.015926 -0.00311,-0.010486 -0.012965,-0.021133 -0.023806,-0.022582 -0.014184,-0.0019 -0.027062,0.00932 -0.040593,0.013974 -0.1710567,0.084599 -0.3328085,0.186923 -0.4917213,0.2921975 -0.00233,0.00627 -0.10495451,0.058199 -0.05853,0.073006 0.025088,0.008 0.068834,-0.016659 0.08748,-0.024783 0.056584,-0.023732 0.1106031,-0.052904 0.1658128,-0.07953 0.026355,-0.01271 0.05142,-0.029481 0.081278,-0.022981 C 1.3138447,1.5579409 1.2761607,1.5935179 1.238534,1.629228 1.216137,1.648611 1.194808,1.670306 1.171143,1.688194 1.165523,1.692444 1.146993,1.702738 1.153085,1.699193 1.3455283,1.5872088 1.4171782,1.5834922 1.3406908,1.5879494 c 0.00221,-0.00437 0.00495,-0.00851 0.00663,-0.013112 0.00361,-0.00988 0.0055,-0.020345 0.00917,-0.030202 0.015256,-0.040878 0.037158,-0.078459 0.066256,-0.1108886 -0.073385,0.036243 -0.1480447,0.070013 -0.2201562,0.1087288 -0.00609,0.00327 -0.050766,0.052296 -0.051675,0.053255 -0.030762,0.032488 -0.061151,0.063966 -0.095491,0.092639 0.060022,-0.035839 0.1193595,-0.072852 0.1800668,-0.1075176 0.00122,-6.958e-4 7.25e-4,0.00271 0.00109,0.00407 0.0041,-0.00471 0.00899,-0.00884 0.012309,-0.014131 0.00728,-0.011607 0.011955,-0.024732 0.019326,-0.036284 0.02298,-0.036015 0.041198,-0.054217 0.069611,-0.08673 0.036852,-0.038564 0.03766,-0.042189 0.077147,-0.073756 0.0093,-0.00743 0.039277,-0.026824 0.028914,-0.020964 -0.062664,0.035432 -0.120581,0.079693 -0.185982,0.1097741 -0.021459,-0.020353 -0.011109,-0.021349 -0.030772,-0.00512 -0.00668,0.00704 -0.012919,0.014519 -0.020027,0.021123 -0.014993,0.013931 -0.036251,0.029854 -0.053412,0.040949 -0.00879,0.00568 -0.036042,0.021261 -0.027072,0.015878 C 1.3053626,1.4284165 1.3676119,1.424475 1.2806103,1.4338871 1.2747937,1.4300501 1.2677575,1.4276127 1.2631606,1.422376 1.2316457,1.386475 1.2186078,1.3264093 1.2056047,1.2828094 1.1858377,1.2165297 1.1783427,1.1841906 1.1610437,1.1163691 1.1280383,1.00014 1.1447935,1.0569526 1.1109098,0.94589255 c 0,0 -0.19263549,0.10564325 -0.19263549,0.10564325 v 0 c 0.0352589,0.1094606 0.0183827,0.053198 0.0503249,0.1688783 0.001976,0.00814 0.0384399,0.1584569 0.0412435,0.1693448 0.013063,0.05073 0.025064,0.1116353 0.057154,0.1550765 0.00689,0.00933 0.016586,0.016212 0.024879,0.024318 0.1090122,0.021368 0.022345,0.010159 0.2496604,-0.1169083 0.038361,-0.021443 0.070398,-0.053486 0.09981,-0.085523 0.00419,-0.0067 0.012593,-0.012207 0.01257,-0.020113 -3.15e-5,-0.010679 -0.00284,-0.033461 -0.012716,-0.029405 C 1.3105422,1.3708491 1.2188375,1.4359229 1.130858,1.5354293 1.09942,1.5731263 1.054009,1.6213363 1.039993,1.6700394 c -0.00796,0.027656 -0.00283,0.063773 0.013441,0.056221 0.074899,-0.034775 0.1428605,-0.082872 0.2142908,-0.1243087 0.032261,-0.030275 0.06278,-0.062028 0.093329,-0.094031 0.096073,-0.1006465 0.0891,-0.091992 -0.1524038,0.017802 -0.027771,0.043134 -0.06363,0.1006618 -0.06918,0.1524058 -0.0012,0.011183 0.00128,0.022458 0.00192,0.033687 0.00443,0.00485 0.00725,0.017137 0.01328,0.014548 0.1255735,-0.053893 0.2086786,-0.096782 0.2962669,-0.1847124 0.029744,-0.029381 0.095323,-0.08567 0.09361,-0.1319216 -3.307e-4,-0.00891 -0.00576,-0.016886 -0.00864,-0.025328 -0.00698,-0.00373 -0.013136,-0.0099 -0.020947,-0.011191 -0.030465,-0.00503 -0.052268,0.010427 -0.078707,0.023187 -0.054559,0.026332 -0.1073052,0.056472 -0.1635283,0.079307 -0.013084,0.00563 -0.057217,0.018539 -0.065444,0.039416 -0.00228,0.00579 9.684e-4,0.014545 0.00643,0.017535 0.0039,0.00213 0.00687,-0.00564 0.010412,-0.00832 0.013461,-0.010174 0.041253,-0.030112 0.053461,-0.038932 0.044765,-0.029751 0.089499,-0.059718 0.1351414,-0.088114 0.018021,-0.011212 0.073111,-0.043128 0.054533,-0.032867 -0.2843051,0.1570221 -0.1393752,0.079685 -0.089453,0.053281 0.010636,-0.00533 0.024792,-0.00646 0.03191,-0.016 0.00494,-0.00661 0.00506,-0.019735 -0.00153,-0.024705 -0.00501,-0.00378 -0.00705,0.01038 -0.010676,0.015495 -0.016974,0.023907 -0.035087,0.046967 -0.051841,0.071033 -0.040322,0.056775 -0.071094,0.119849 -0.1166539,0.1728546 -0.017474,0.01938 -0.027844,0.032016 -0.04786,0.049354 -0.010004,0.00867 -0.043032,0.030514 -0.03124,0.024504 0.3259827,-0.1661597 0.1476376,-0.088418 0.079757,-0.045766 -0.082681,0.043465 -0.1690555,0.076998 -0.25911051,0.1019829 -0.003575,0.00278 -0.006312,0.00733 -0.0107262,0.00835 -0.007718,0.00179 0.003431,-0.015731 0.007401,-0.022586 C 0.98186009,1.726969 1.0016069,1.705222 1.0224038,1.684975 1.0894328,1.624847 1.162742,1.5720274 1.2296054,1.511617 1.2842824,1.461806 1.3371539,1.4097035 1.3964571,1.3653018 1.4501921,1.3213238 1.5016921,1.2746508 1.5570472,1.2326509 1.6236702,1.1793579 1.6883893,1.123717 1.7592056,1.075842 1.7733286,1.065952 1.7872886,1.055831 1.8015736,1.046178 1.8140176,1.037768 1.8525466,1.014446 1.8393776,1.021667 1.7822846,1.052974 1.7283592,1.090182 1.669718,1.118482 1.620276,1.142343 1.71058,1.082429 1.675748,1.088948 1.670998,1.089837 1.670688,1.097178 1.668148,1.101295 1.662278,1.108225 1.656925,1.115642 1.650523,1.122089 1.643763,1.128899 1.620094,1.145066 1.628768,1.140955 1.692034,1.11097 1.7520616,1.074481 1.815126,1.044075 1.818616,1.042395 1.811846,1.056744 1.809106,1.054005 1.797723,1.042584 1.817596,1.014627 1.8085319,1.005633 1.8109419,0.9808471 1.8171919,0.9575948 1.8042119,0.933843 1.7981119,0.9226824 1.7698169,0.9070981 1.7567409,0.9137477 1.5622651,1.0126448 1.5872142,0.9938625 1.4977001,1.079115 1.4639271,1.11732 1.4094621,1.173602 1.3926016,1.2222994 c -0.0088,0.025426 -0.00919,0.078024 0.018542,0.066981 0.082059,-0.032676 0.1561965,-0.082514 0.2342947,-0.1237704 0.018191,-0.011779 0.036369,-0.023577 0.054572,-0.035337 0.019287,-0.012461 0.07837,-0.047728 0.057899,-0.037325 -0.051294,0.026067 -0.095952,0.066297 -0.1505625,0.084416 -0.011243,0.00373 0.00957,-0.025642 0.00289,-0.035421 -0.013676,-0.020004 -0.043665,0.1147125 -0.055361,0.047115 -0.029652,0.023045 -0.059025,0.046452 -0.088862,0.069258 -0.010818,0.00827 -0.04577,0.028519 -0.032815,0.024328 0.1625273,-0.052577 0.174039,-0.044171 0.2538188,-0.1266559 0.035644,-0.037196 0.070927,-0.074496 0.1042515,-0.1138125 0.00791,-0.00934 0.035108,-0.031615 0.023302,-0.028381 -0.2097365,0.057442 -0.2102896,0.00551 -0.2067421,0.084317 -0.020167,0.046781 -0.064262,0.1496275 -0.051713,0.1984395 0.00229,0.00892 0.011145,0.014654 0.016718,0.02198 0.072028,-0.039369 0.1453287,-0.076492 0.2160831,-0.1181061 0.00909,-0.00535 0.015238,-0.014599 0.022523,-0.022228 0.043022,-0.045057 0.0814,-0.094334 0.1217347,-0.1417319 0.037569,-0.0463153 0.02028,-0.023748 0.052116,-0.0673301 0.00487,-0.006661 0.022362,-0.0227716 0.014599,-0.0199836 -0.2292367,0.0823196 -0.1811174,0.0239977 -0.2234006,0.12216143 -0.030682,0.064993 -0.058306,0.1318003 -0.099859,0.190942 -0.037691,0.053503 -0.083207,0.099239 -0.1333536,0.1413324 -0.035936,0.028086 -0.072499,0.055298 -0.1102026,0.080997 -0.014831,0.010109 -0.060852,0.037975 -0.044978,0.029599 0.051406,-0.027124 0.2299805,-0.1321117 0.1004595,-0.056173 -0.1627557,0.083669 -0.3230362,0.1718378 -0.4801041,0.2659407 -0.0979162,0.059295 -0.0531659,0.031669 0.1165042,-0.064856 0.00348,-0.00198 -0.034315,0.017844 -0.037322,0.024153 -0.00184,0.00387 -0.00371,0.012599 5.688e-4,0.012834 0.00435,2.386e-4 0.00225,-0.00841 0.00338,-0.012617 0.017149,-0.044198 0.036572,-0.08739 0.056177,-0.1305437 0.024472,-0.047196 0.049188,-0.095146 0.088315,-0.1321165 0.04753,-0.043479 0.1048632,-0.074238 0.1564532,-0.1125446 0.087301,-0.056465 0.022721,-0.013935 -0.1407533,0.078274 -0.00914,0.00516 0.017565,-0.011564 0.026852,-0.016461 0.00918,-0.00484 0.051039,-0.02252 0.060383,-0.026163 0.011014,-0.00429 0.022215,-0.00809 0.033323,-0.012136 C 1.4413453,1.3071261 1.5090946,1.2791001 1.57929,1.2578891 1.638516,1.2314121 1.6997627,1.2104511 1.7639094,1.1994001 1.8891,1.1690961 1.875393,1.1610481 2.0498252,1.0584959 c 0.017797,-0.010463 0.023775,-0.026439 0.024103,-0.045723 -0.00504,-0.0403887 -0.021682,-0.0759862 -0.055875,-0.0998944 -0.051799,-0.024476 -0.1084204,-0.0328692 -0.1637141,-0.04638 C 1.8064014,0.85357207 1.7584003,0.8370943 1.7084933,0.83368657 1.696256,0.83285099 1.683961,0.8336577 1.6716965,0.83348038 1.6586493,0.83329173 1.6456061,0.83288594 1.6325609,0.83258871 1.5480854,0.82865493 1.4644664,0.81727822 1.3837676,0.79065196 1.2681669,0.75227343 1.1555899,0.70424891 1.04423,0.65513328 0.9865348,0.62784566 0.92871741,0.59834718 0.86725441,0.58080703 c -0.003404,-9.2644e-4 -0.0375548,-0.0114016 -0.0430207,-0.008579 -0.10973239,0.0566615 -0.24079729,0.0642579 -0.21915411,0.18036844 0.0164531,0.0619733 0.0381041,0.12241823 0.0539203,0.18458841 0.0247965,0.0807 0.0428444,0.16264992 0.0623348,0.24476292 0.0273589,0.1207236 0.0531428,0.2417962 0.0793609,0.3627706 0.0203965,0.091305 0.0426435,0.1828871 0.0560012,0.2754013 0.0662168,-0.037031 0.13188508,-0.07506 0.1986503,-0.1110929 0.0026,-0.00141 -0.00263,0.007 -0.00558,0.0069 C 1.0337841,1.715342 0.99102388,1.6738958 0.97541988,1.6648998 0.93545378,1.6268668 0.90635278,1.5821188 0.88771528,1.5298459 0.85760318,1.4486839 0.83598848,1.3658108 0.82029548,1.2806117 0.78621618,1.1444834 0.75560538,1.0072318 0.74349548,0.8670898 0.73476248,0.7648992 0.72920668,0.66262869 0.73594948,0.56010323 c 0,0 -0.20865851,0.10631681 -0.20865851,0.10631681 z"
     style="stroke-width:0.264583" />
</svg>
