<?xml version="1.0" encoding="UTF-8" standalone="no"?>
<svg
   xmlns:dc="http://purl.org/dc/elements/1.1/"
   xmlns:cc="http://creativecommons.org/ns#"
   xmlns:rdf="http://www.w3.org/1999/02/22-rdf-syntax-ns#"
   xmlns:svg="http://www.w3.org/2000/svg"
   xmlns="http://www.w3.org/2000/svg"
   xmlns:sodipodi="http://sodipodi.sourceforge.net/DTD/sodipodi-0.dtd"
   xmlns:inkscape="http://www.inkscape.org/namespaces/inkscape"
   id="svg4268"
   version="1.1"
   viewBox="0 0 4.1987968 4.2476212"
   height="16.054001"
   width="15.869469"
   sodipodi:docname="gaphor-agregations-memberof-symbolic.svg"
   inkscape:version="1.0.1 (3bc2e813f5, 2020-09-07)">
  <sodipodi:namedview
     pagecolor="#ffffff"
     bordercolor="#666666"
     borderopacity="1"
     objecttolerance="10"
     gridtolerance="10"
     guidetolerance="10"
     inkscape:pageopacity="0"
     inkscape:pageshadow="2"
     inkscape:window-width="1366"
     inkscape:window-height="705"
     id="namedview9"
     showgrid="false"
     inkscape:zoom="16.755948"
     inkscape:cx="11.048962"
     inkscape:cy="3.0532722"
     inkscape:window-x="-8"
     inkscape:window-y="-8"
     inkscape:window-maximized="1"
     inkscape:current-layer="svg4268" />
  <defs
     id="defs4262" />
  <metadata
     id="metadata4265">
    <rdf:RDF>
      <cc:Work
         rdf:about="">
        <dc:format>image/svg+xml</dc:format>
        <dc:type
           rdf:resource="http://purl.org/dc/dcmitype/StillImage" />
        <dc:title />
      </cc:Work>
    </rdf:RDF>
  </metadata>
  <path
     id="path4594-6-2-8"
     d="m 0.27786074,0.03199274 a 0.26394816,0.26264208 0 0 1 0.058443,0.0097271 L 2.1832367,0.56708087 A 0.26426693,0.26295927 0 1 1 2.039067,1.0730551 L 0.6480229,0.677581 1.0454637,2.0617419 A 0.26426709,0.26295944 0 1 1 0.53697231,2.205198 L 0.00899972,0.36740484 A 0.26394816,0.26264208 0 0 1 0.2778568,0.03202649 Z"
     style="color:#000000;font-style:normal;font-variant:normal;font-weight:normal;font-stretch:normal;font-size:medium;line-height:normal;font-family:sans-serif;font-variant-ligatures:normal;font-variant-position:normal;font-variant-caps:normal;font-variant-numeric:normal;font-variant-alternates:normal;font-feature-settings:normal;text-indent:0;text-align:start;text-decoration:none;text-decoration-line:none;text-decoration-style:solid;text-decoration-color:#000000;letter-spacing:normal;word-spacing:normal;text-transform:none;writing-mode:lr-tb;direction:ltr;text-orientation:mixed;dominant-baseline:auto;baseline-shift:baseline;text-anchor:start;white-space:normal;shape-padding:0;clip-rule:nonzero;display:inline;overflow:visible;visibility:visible;isolation:auto;mix-blend-mode:normal;color-interpolation:sRGB;color-interpolation-filters:linearRGB;solid-color:#000000;solid-opacity:1;vector-effect:none;fill:#000000;fill-opacity:1;fill-rule:nonzero;stroke:none;stroke-width:0.526536;stroke-linecap:round;stroke-linejoin:round;stroke-miterlimit:4;stroke-dasharray:none;stroke-dashoffset:0;stroke-opacity:1;color-rendering:auto;image-rendering:auto;shape-rendering:auto;text-rendering:auto;enable-background:accumulate" />
  <path
     id="path18"
     d="m 0.50077148,0.30880078 a 0.26392194,0.26261598 0 0 1 0.17728999,0.0756055 l 0.0720854,0.0717282 a 0.26392194,0.26261598 0 0 1 0,0.37221139 0.26392194,0.26261598 0 0 1 -0.37211412,0 l -0.0720854,-0.0717282 a 0.26392194,0.26261598 0 0 1 0,-0.37221139 0.26392194,0.26261598 0 0 1 0.19482413,-0.0756055 z M 1.319033,1.1230131 a 0.26392194,0.26261598 0 0 1 0.1772899,0.075605 l 0.3740624,0.3722114 a 0.26392194,0.26261598 0 0 1 0,0.3722115 0.26392194,0.26261598 0 0 1 -0.3740624,0 L 1.1242088,1.5708299 a 0.26392194,0.26261598 0 0 1 0,-0.3722114 0.26392194,0.26261598 0 0 1 0.1948242,-0.075605 z m 1.1202388,1.1146956 a 0.26392194,0.26261598 0 0 1 0.1772899,0.075606 L 2.990624,2.685526 a 0.26392194,0.26261598 0 0 1 0,0.3702729 0.26392194,0.26261598 0 0 1 -0.3740623,0 L 2.2424993,2.6855255 a 0.26392194,0.26261598 0 0 1 0,-0.3722113 0.26392194,0.26261598 0 0 1 0.1967725,-0.075605 z m 1.1182905,1.112757 A 0.26392194,0.26261598 0 0 1 3.7368005,3.42801 l 0.3721141,0.3722115 a 0.26392194,0.26261598 0 0 1 0,0.3702727 0.26392194,0.26261598 0 0 1 -0.3721141,0 L 3.3627381,3.8002212 a 0.26392194,0.26261598 0 0 1 0,-0.3722115 0.26392194,0.26261598 0 0 1 0.1948242,-0.077544 z"
     style="color:#000000;font-style:normal;font-variant:normal;font-weight:normal;font-stretch:normal;font-size:medium;line-height:normal;font-family:sans-serif;font-variant-ligatures:normal;font-variant-position:normal;font-variant-caps:normal;font-variant-numeric:normal;font-variant-alternates:normal;font-variant-east-asian:normal;font-feature-settings:normal;font-variation-settings:normal;text-indent:0;text-align:start;text-decoration:none;text-decoration-line:none;text-decoration-style:solid;text-decoration-color:#000000;letter-spacing:normal;word-spacing:normal;text-transform:none;writing-mode:lr-tb;direction:ltr;text-orientation:mixed;dominant-baseline:auto;baseline-shift:baseline;text-anchor:start;white-space:normal;shape-padding:0;shape-margin:0;inline-size:0;clip-rule:nonzero;display:inline;overflow:visible;visibility:visible;opacity:1;isolation:auto;mix-blend-mode:normal;color-interpolation:sRGB;color-interpolation-filters:linearRGB;solid-color:#000000;solid-opacity:1;vector-effect:none;fill:#000000;fill-opacity:1;fill-rule:nonzero;stroke:none;stroke-width:0.526536;stroke-linecap:round;stroke-linejoin:miter;stroke-miterlimit:4;stroke-dasharray:0.526536, 1.05307;stroke-dashoffset:0;stroke-opacity:1;color-rendering:auto;image-rendering:auto;shape-rendering:auto;text-rendering:auto;enable-background:accumulate;stop-color:#000000;stop-opacity:1" />
  <text
     xml:space="preserve"
     style="font-style:normal;font-weight:normal;font-size:2.10862px;line-height:1.25;font-family:sans-serif;fill:#000000;fill-opacity:1;stroke:none;stroke-width:0.0527158"
     x="-0.15409237"
     y="4.4350142"
     id="text13"
     transform="scale(1.0519385,0.95062592)"><tspan
       sodipodi:role="line"
       id="tspan11"
       x="-0.15409237"
       y="4.4350142"
       style="stroke-width:0.0527158">M</tspan></text>
</svg>
