<?xml version="1.0" encoding="UTF-8" standalone="no"?>
<svg
   xmlns:dc="http://purl.org/dc/elements/1.1/"
   xmlns:cc="http://creativecommons.org/ns#"
   xmlns:rdf="http://www.w3.org/1999/02/22-rdf-syntax-ns#"
   xmlns:svg="http://www.w3.org/2000/svg"
   xmlns="http://www.w3.org/2000/svg"
   xmlns:sodipodi="http://sodipodi.sourceforge.net/DTD/sodipodi-0.dtd"
   xmlns:inkscape="http://www.inkscape.org/namespaces/inkscape"
   id="svg4268"
   version="1.1"
   viewBox="0 0 4.1987968 4.2476212"
   height="16.054001"
   width="15.869469"
   sodipodi:docname="gaphor-agregations-subquantityof-symbolic.svg"
   inkscape:version="1.0.1 (3bc2e813f5, 2020-09-07)">
  <sodipodi:namedview
     pagecolor="#ffffff"
     bordercolor="#666666"
     borderopacity="1"
     objecttolerance="10"
     gridtolerance="10"
     guidetolerance="10"
     inkscape:pageopacity="0"
     inkscape:pageshadow="2"
     inkscape:window-width="1366"
     inkscape:window-height="705"
     id="namedview9"
     showgrid="false"
     inkscape:zoom="16.755948"
     inkscape:cx="18.952947"
     inkscape:cy="9.7174601"
     inkscape:window-x="-8"
     inkscape:window-y="-8"
     inkscape:window-maximized="1"
     inkscape:current-layer="svg4268" />
  <defs
     id="defs4262" />
  <metadata
     id="metadata4265">
    <rdf:RDF>
      <cc:Work
         rdf:about="">
        <dc:format>image/svg+xml</dc:format>
        <dc:type
           rdf:resource="http://purl.org/dc/dcmitype/StillImage" />
        <dc:title />
      </cc:Work>
    </rdf:RDF>
  </metadata>
  <path
     id="path4594-6-2-8"
     d="m 0.27891411,0.01620388 a 0.26494356,0.26362592 0 0 1 0.0586638,0.0097636 L 2.1914755,0.55329643 A 0.26526353,0.26394431 0 1 1 2.0467623,1.061166 L 0.65047225,0.6642105 1.0494118,2.0535563 A 0.26526369,0.26394446 0 1 1 0.53900283,2.19755 L 0.0090392,0.35287241 A 0.26494356,0.26362592 0 0 1 0.27891016,0.01623775 Z"
     style="color:#000000;font-style:normal;font-variant:normal;font-weight:normal;font-stretch:normal;font-size:medium;line-height:normal;font-family:sans-serif;font-variant-ligatures:normal;font-variant-position:normal;font-variant-caps:normal;font-variant-numeric:normal;font-variant-alternates:normal;font-feature-settings:normal;text-indent:0;text-align:start;text-decoration:none;text-decoration-line:none;text-decoration-style:solid;text-decoration-color:#000000;letter-spacing:normal;word-spacing:normal;text-transform:none;writing-mode:lr-tb;direction:ltr;text-orientation:mixed;dominant-baseline:auto;baseline-shift:baseline;text-anchor:start;white-space:normal;shape-padding:0;clip-rule:nonzero;display:inline;overflow:visible;visibility:visible;isolation:auto;mix-blend-mode:normal;color-interpolation:sRGB;color-interpolation-filters:linearRGB;solid-color:#000000;solid-opacity:1;vector-effect:none;fill:#000000;fill-opacity:1;fill-rule:nonzero;stroke:none;stroke-width:0.528515;stroke-linecap:round;stroke-linejoin:round;stroke-miterlimit:4;stroke-dasharray:none;stroke-dashoffset:0;stroke-opacity:1;color-rendering:auto;image-rendering:auto;shape-rendering:auto;text-rendering:auto;enable-background:accumulate" />
  <path
     id="path18"
     d="m 0.50266549,0.29404883 a 0.26491723,0.26359974 0 0 1 0.17795861,0.0758886 l 0.0723565,0.071997 a 0.26491723,0.26359974 0 0 1 0,0.37360569 0.26491723,0.26359974 0 0 1 -0.37351745,0 l -0.0723565,-0.071997 a 0.26491723,0.26359974 0 0 1 0,-0.3736057 0.26491723,0.26359974 0 0 1 0.19555884,-0.0758886 z M 1.3240127,1.1113113 a 0.26491723,0.26359974 0 0 1 0.1779587,0.075888 l 0.375473,0.3736058 a 0.26491723,0.26359974 0 0 1 0,0.3736056 0.26491723,0.26359974 0 0 1 -0.375473,0 L 1.1284539,1.5608056 a 0.26491723,0.26359974 0 0 1 0,-0.3736058 0.26491723,0.26359974 0 0 1 0.1955588,-0.075889 z m 1.1244635,1.1188711 a 0.26491723,0.26359974 0 0 1 0.1779585,0.075888 l 0.375473,0.3736058 a 0.26491723,0.26359974 0 0 1 0,0.3716598 0.26491723,0.26359974 0 0 1 -0.375473,0 L 2.2509617,2.6796768 a 0.26491723,0.26359974 0 0 1 0,-0.3736058 0.26491723,0.26359974 0 0 1 0.1975145,-0.075889 z M 3.570984,3.3471079 a 0.26491723,0.26359974 0 0 1 0.1799142,0.077835 l 0.3735175,0.3736056 a 0.26491723,0.26359974 0 0 1 0,0.3716599 0.26491723,0.26359974 0 0 1 -0.3735175,0 l -0.375473,-0.37166 a 0.26491723,0.26359974 0 0 1 0,-0.3736056 0.26491723,0.26359974 0 0 1 0.1955588,-0.077835 z"
     style="color:#000000;font-style:normal;font-variant:normal;font-weight:normal;font-stretch:normal;font-size:medium;line-height:normal;font-family:sans-serif;font-variant-ligatures:normal;font-variant-position:normal;font-variant-caps:normal;font-variant-numeric:normal;font-variant-alternates:normal;font-variant-east-asian:normal;font-feature-settings:normal;font-variation-settings:normal;text-indent:0;text-align:start;text-decoration:none;text-decoration-line:none;text-decoration-style:solid;text-decoration-color:#000000;letter-spacing:normal;word-spacing:normal;text-transform:none;writing-mode:lr-tb;direction:ltr;text-orientation:mixed;dominant-baseline:auto;baseline-shift:baseline;text-anchor:start;white-space:normal;shape-padding:0;shape-margin:0;inline-size:0;clip-rule:nonzero;display:inline;overflow:visible;visibility:visible;opacity:1;isolation:auto;mix-blend-mode:normal;color-interpolation:sRGB;color-interpolation-filters:linearRGB;solid-color:#000000;solid-opacity:1;vector-effect:none;fill:#000000;fill-opacity:1;fill-rule:nonzero;stroke:none;stroke-width:0.528515;stroke-linecap:round;stroke-linejoin:miter;stroke-miterlimit:4;stroke-dasharray:0.528515, 1.05703;stroke-dashoffset:0;stroke-opacity:1;color-rendering:auto;image-rendering:auto;shape-rendering:auto;text-rendering:auto;enable-background:accumulate;stop-color:#000000;stop-opacity:1" />
  <text
     xml:space="preserve"
     style="font-style:normal;font-weight:normal;font-size:1.58555px;line-height:1.25;font-family:sans-serif;fill:#000000;fill-opacity:1;stroke:none;stroke-width:0.0396389"
     x="-0.054145586"
     y="3.5115759"
     id="text13"
     transform="scale(0.82682183,1.2094504)"><tspan
       sodipodi:role="line"
       id="tspan11"
       x="-0.054145586"
       y="3.5115759"
       style="stroke-width:0.0396389">PW</tspan></text>
</svg>
