<?xml version="1.0" encoding="UTF-8" standalone="no"?>
<svg
   xmlns:dc="http://purl.org/dc/elements/1.1/"
   xmlns:cc="http://creativecommons.org/ns#"
   xmlns:rdf="http://www.w3.org/1999/02/22-rdf-syntax-ns#"
   xmlns:svg="http://www.w3.org/2000/svg"
   xmlns="http://www.w3.org/2000/svg"
   xmlns:sodipodi="http://sodipodi.sourceforge.net/DTD/sodipodi-0.dtd"
   xmlns:inkscape="http://www.inkscape.org/namespaces/inkscape"
   id="svg4268"
   version="1.1"
   viewBox="0 0 4.1987968 4.2476212"
   height="16.054001"
   width="15.869469"
   sodipodi:docname="gaphor-agregations-componentof-symbolic.svg"
   inkscape:version="1.0.1 (3bc2e813f5, 2020-09-07)">
  <sodipodi:namedview
     pagecolor="#ffffff"
     bordercolor="#666666"
     borderopacity="1"
     objecttolerance="10"
     gridtolerance="10"
     guidetolerance="10"
     inkscape:pageopacity="0"
     inkscape:pageshadow="2"
     inkscape:window-width="1366"
     inkscape:window-height="705"
     id="namedview9"
     showgrid="false"
     inkscape:zoom="23.696489"
     inkscape:cx="9.393381"
     inkscape:cy="7.9622371"
     inkscape:window-x="-8"
     inkscape:window-y="-8"
     inkscape:window-maximized="1"
     inkscape:current-layer="svg4268" />
  <defs
     id="defs4262" />
  <metadata
     id="metadata4265">
    <rdf:RDF>
      <cc:Work
         rdf:about="">
        <dc:format>image/svg+xml</dc:format>
        <dc:type
           rdf:resource="http://purl.org/dc/dcmitype/StillImage" />
        <dc:title />
      </cc:Work>
    </rdf:RDF>
  </metadata>
  <path
     id="path4594-6-2-8"
     d="m 0.30733487,0.03199429 a 0.26195736,0.26362593 0 0 1 0.0580027,0.0097635 L 2.1983395,0.56908684 A 0.26227372,0.26394431 0 1 1 2.0552572,1.0769565 L 0.67470506,0.68000091 1.0691481,2.0693467 A 0.26227388,0.26394447 0 1 1 0.56449204,2.2133404 L 0.04050175,0.36866283 A 0.26195736,0.26362593 0 0 1 0.30733094,0.03202816 Z"
     style="color:#000000;font-style:normal;font-variant:normal;font-weight:normal;font-stretch:normal;font-size:medium;line-height:normal;font-family:sans-serif;font-variant-ligatures:normal;font-variant-position:normal;font-variant-caps:normal;font-variant-numeric:normal;font-variant-alternates:normal;font-feature-settings:normal;text-indent:0;text-align:start;text-decoration:none;text-decoration-line:none;text-decoration-style:solid;text-decoration-color:#000000;letter-spacing:normal;word-spacing:normal;text-transform:none;writing-mode:lr-tb;direction:ltr;text-orientation:mixed;dominant-baseline:auto;baseline-shift:baseline;text-anchor:start;white-space:normal;shape-padding:0;clip-rule:nonzero;display:inline;overflow:visible;visibility:visible;isolation:auto;mix-blend-mode:normal;color-interpolation:sRGB;color-interpolation-filters:linearRGB;solid-color:#000000;solid-opacity:1;vector-effect:none;fill:#000000;fill-opacity:1;fill-rule:nonzero;stroke:none;stroke-width:0.525528;stroke-linecap:round;stroke-linejoin:round;stroke-miterlimit:4;stroke-dasharray:none;stroke-dashoffset:0;stroke-opacity:1;color-rendering:auto;image-rendering:auto;shape-rendering:auto;text-rendering:auto;enable-background:accumulate" />
  <path
     id="path18"
     d="m 0.52856435,0.30983924 a 0.26193133,0.26359974 0 0 1 0.17595278,0.0758887 l 0.0715416,0.0719969 a 0.26193133,0.26359974 0 0 1 0,0.37360569 0.26193133,0.26359974 0 0 1 -0.36930747,0 l -0.0715416,-0.0719969 a 0.26193133,0.26359974 0 0 1 0,-0.37360569 0.26193133,0.26359974 0 0 1 0.19335469,-0.0758887 z M 1.3406541,1.1271017 a 0.26193133,0.26359974 0 0 1 0.1759528,0.075889 l 0.371241,0.3736058 a 0.26193133,0.26359974 0 0 1 0,0.3736057 0.26193133,0.26359974 0 0 1 -0.371241,0 L 1.1472994,1.5765959 a 0.26193133,0.26359974 0 0 1 0,-0.3736056 0.26193133,0.26359974 0 0 1 0.1933547,-0.075889 z m 1.1117896,1.1188711 a 0.26193133,0.26359974 0 0 1 0.1759526,0.075889 l 0.3712411,0.3736057 a 0.26193133,0.26359974 0 0 1 0,0.3716599 0.26193133,0.26359974 0 0 1 -0.3712411,0 L 2.2571553,2.6954672 a 0.26193133,0.26359974 0 0 1 0,-0.3736057 0.26193133,0.26359974 0 0 1 0.1952884,-0.075889 z m 1.109856,1.1169254 a 0.26193133,0.26359974 0 0 1 0.1778862,0.077835 l 0.3693075,0.3736057 a 0.26193133,0.26359974 0 0 1 0,0.3716598 0.26193133,0.26359974 0 0 1 -0.3693075,0 L 3.368945,3.8143385 a 0.26193133,0.26359974 0 0 1 0,-0.3736058 0.26193133,0.26359974 0 0 1 0.1933547,-0.077834 z"
     style="color:#000000;font-style:normal;font-variant:normal;font-weight:normal;font-stretch:normal;font-size:medium;line-height:normal;font-family:sans-serif;font-variant-ligatures:normal;font-variant-position:normal;font-variant-caps:normal;font-variant-numeric:normal;font-variant-alternates:normal;font-variant-east-asian:normal;font-feature-settings:normal;font-variation-settings:normal;text-indent:0;text-align:start;text-decoration:none;text-decoration-line:none;text-decoration-style:solid;text-decoration-color:#000000;letter-spacing:normal;word-spacing:normal;text-transform:none;writing-mode:lr-tb;direction:ltr;text-orientation:mixed;dominant-baseline:auto;baseline-shift:baseline;text-anchor:start;white-space:normal;shape-padding:0;shape-margin:0;inline-size:0;clip-rule:nonzero;display:inline;overflow:visible;visibility:visible;opacity:1;isolation:auto;mix-blend-mode:normal;color-interpolation:sRGB;color-interpolation-filters:linearRGB;solid-color:#000000;solid-opacity:1;vector-effect:none;fill:#000000;fill-opacity:1;fill-rule:nonzero;stroke:none;stroke-width:0.525528;stroke-linecap:round;stroke-linejoin:miter;stroke-miterlimit:4;stroke-dasharray:0.525528, 1.05105;stroke-dashoffset:0;stroke-opacity:1;color-rendering:auto;image-rendering:auto;shape-rendering:auto;text-rendering:auto;enable-background:accumulate;stop-color:#000000;stop-opacity:1" />
  <text
     xml:space="preserve"
     style="font-style:normal;font-weight:normal;font-size:2.1478px;line-height:1.25;font-family:sans-serif;fill:#000000;fill-opacity:1;stroke:none;stroke-width:0.053695"
     x="-0.06280309"
     y="3.5020556"
     id="text13"
     transform="scale(0.83406908,1.1989415)"><tspan
       sodipodi:role="line"
       id="tspan11"
       x="-0.06280309"
       y="3.5020556"
       style="stroke-width:0.053695">co</tspan></text>
</svg>
